#!OML:ASF X:\für Bonn\!DataBase\2005_08_12_Daniel\c3d\Daniel.ASF
:FULLY-SPECIFIED
:DEGREES
33
root -3.13615 15.2186 -2.86535 309.669 -81.2519 -324.428
lowerback 31.2953 -2.89982 -2.2132
upperback 2.66334 -5.39205 -3.40517
thorax -13.4903 -2.53822 -0.299709
lowerneck 5.69064 2.10065 -3.59643
upperneck 1.82952 2.51654 -0.532972
head -0.413737 1.21752 0.377201
rclavicle 4.01794e-014 3.57812e-015
rhumerus 59.455 2.29771 -95.7376
rradius 7.72214
rwrist 61.2404
rhand -20.2091 11.1736
rfingers 7.12502
rthumb 6.13795 -18.7175
lclavicle 4.01794e-014 3.57812e-015
lhumerus 62.044 1.80414 95.752
lradius 10.2619
lwrist -66.1411
lhand -15.8542 4.27061
lfingers 7.12502
lthumb 10.3408 33.9964
rfemur -15.6117 -9.47394 5.88547
rtibia 69.2172
rfoot -32.4763 2.3169
rtoes -14.9346
lfemur -22.238 -4.6301 -20.7921
ltibia 67.3966
lfoot -31.2624 -6.32843
ltoes -2.11404
34
root -3.11769 15.083 -2.86702 309.566 -81.2646 -324.573
lowerback 31.9112 -2.89144 -2.18691
upperback 2.76359 -5.40248 -3.38636
thorax -13.6402 -2.54286 -0.263365
lowerneck 5.66036 2.09558 -3.56683
upperneck 1.69228 2.5133 -0.563414
head -0.450249 1.21938 0.362799
rclavicle 2.30342e-014 2.38542e-015
rhumerus 59.9086 2.31035 -95.592
rradius 7.53264
rwrist 61.1754
rhand -20.3464 11.2369
rfingers 7.12502
rthumb 6.00538 -18.658
lclavicle 2.30342e-014 2.38542e-015
lhumerus 62.3454 1.58046 95.3338
lradius 10.1684
lwrist -65.6787
lhand -16.0362 4.26715
lfingers 7.12502
lthumb 10.1652 34.0016
rfemur -16.8334 -10.1311 5.47814
rtibia 71.6585
rfoot -32.2532 2.99468
rtoes -14.8516
lfemur -23.2297 -4.18711 -20.6113
ltibia 69.3196
lfoot -31.6252 -6.78738
ltoes -2.32649
35
root -3.09871 14.9434 -2.86786 309.465 -81.278 -324.742
lowerback 32.5753 -2.89567 -2.1449
upperback 2.85148 -5.42661 -3.37159
thorax -13.823 -2.55352 -0.231776
lowerneck 5.60123 2.09423 -3.55195
upperneck 1.60152 2.51544 -0.594017
head -0.467853 1.22283 0.35108
rclavicle 3.67255e-014 -2.90226e-014
rhumerus 60.3768 2.3383 -95.456
rradius 7.36009
rwrist 61.1357
rhand -20.4365 11.2816
rfingers 7.12502
rthumb 5.91843 -18.6158
lclavicle 3.67255e-014 -2.90226e-014
lhumerus 62.6599 1.33537 94.7945
lradius 10.0249
lwrist -65.063
lhand -16.294 4.25125
lfingers 7.12502
lthumb 9.91649 33.9977
rfemur -18.0874 -10.8365 5.03778
rtibia 74.1429
rfoot -31.9662 3.63742
rtoes -14.9184
lfemur -24.234 -3.73173 -20.4161
ltibia 71.268
lfoot -31.9169 -7.29457
ltoes -2.50957
36
root -3.08044 14.8004 -2.86907 309.396 -81.2887 -324.945
lowerback 33.2574 -2.89505 -2.10308
upperback 2.92468 -5.44452 -3.35366
thorax -14.0257 -2.56039 -0.198144
lowerneck 5.60037 2.09137 -3.47741
upperneck 1.46736 2.51581 -0.66153
head -0.507132 1.22682 0.317557
rclavicle -4.02539e-015 7.95139e-015
rhumerus 60.8727 2.33441 -95.3031
rradius 7.16953
rwrist 61.0925
rhand -20.4929 11.3692
rfingers 7.12502
rthumb 5.86394 -18.5297
lclavicle -4.02539e-015 7.95139e-015
lhumerus 62.9524 1.0689 94.2409
lradius 9.91683
lwrist -64.3914
lhand -16.4695 4.23407
lfingers 7.12502
lthumb 9.74716 33.9885
rfemur -19.3732 -11.5477 4.57624
rtibia 76.6444
rfoot -31.6103 4.28042
rtoes -14.9853
lfemur -25.2464 -3.26893 -20.2054
ltibia 73.2358
lfoot -32.1195 -7.85975
ltoes -2.61735
37
root -3.06161 14.6533 -2.87039 309.333 -81.2995 -325.155
lowerback 33.9785 -2.89944 -2.07058
upperback 2.96467 -5.47137 -3.32264
thorax -14.2763 -2.56806 -0.139172
lowerneck 5.60061 2.09365 -3.4397
upperneck 1.37827 2.52062 -0.71252
head -0.533517 1.2317 0.295246
rclavicle -2.5842e-015 2.8625e-014
rhumerus 61.3151 2.35204 -95.1406
rradius 7.04356
rwrist 61.0411
rhand -20.4725 11.4439
rfingers 7.12502
rthumb 5.88367 -18.4545
lclavicle -2.5842e-015 2.8625e-014
lhumerus 63.2083 0.841922 93.6939
lradius 9.83792
lwrist -63.819
lhand -16.6268 4.20518
lfingers 7.12502
lthumb 9.59546 33.9667
rfemur -20.6786 -12.2935 4.09398
rtibia 79.1513
rfoot -31.2488 4.91321
rtoes -15.1664
lfemur -26.3018 -2.81048 -19.9737
ltibia 75.2524
lfoot -32.2065 -8.50104
ltoes -2.67439
38
root -3.04323 14.4992 -2.87161 309.271 -81.3194 -325.356
lowerback 34.6739 -2.90509 -2.00731
upperback 3.00906 -5.49084 -3.3171
thorax -14.5127 -2.57551 -0.128541
lowerneck 5.57752 2.09038 -3.32116
upperneck 1.33432 2.52433 -0.786703
head -0.540379 1.23573 0.252929
rclavicle 1.799e-014 -3.33958e-014
rhumerus 61.7416 2.33078 -95.0072
rradius 6.9871
rwrist 61.0188
rhand -20.3883 11.5332
rfingers 7.12502
rthumb 5.9649 -18.3628
lclavicle 1.799e-014 -3.33958e-014
lhumerus 63.4559 0.571144 93.1218
lradius 9.80398
lwrist -63.2175
lhand -16.7186 4.12025
lfingers 7.12502
lthumb 9.50688 33.8858
rfemur -21.9817 -13.0841 3.57832
rtibia 81.6535
rfoot -30.8353 5.68929
rtoes -15.1728
lfemur -27.4199 -2.31028 -19.7109
ltibia 77.3359
lfoot -32.2311 -9.21087
ltoes -2.6172
